<svg id="Layer_1" data-name="Layer 1" xmlns="http://www.w3.org/2000/svg" viewBox="0 0 340.02 99.39"><defs><style>.cls-1{fill:#fff;}.cls-2{fill:#434343;}</style></defs><title>google</title><rect class="cls-1" width="340.02" height="99.39" rx="5.55" ry="5.55"/><path class="cls-2" d="M138.28,72.2v1.62a7.71,7.71,0,0,1-1.45.13,3,3,0,0,1-3.3-3.36l0-5.92h-2V63.09h2l0-3.7h1.83l0,3.7h2.88v1.58h-2.88l0,5.56a1.77,1.77,0,0,0,1.89,2.08A6,6,0,0,0,138.28,72.2Z" transform="translate(-4.49 -2)"/><path class="cls-2" d="M151.32,68.44a5.5,5.5,0,1,1-5.5-5.54A5.3,5.3,0,0,1,151.32,68.44Zm-9.18,0a3.69,3.69,0,1,0,7.35,0A3.69,3.69,0,1,0,142.14,68.44Z" transform="translate(-4.49 -2)"/><path class="cls-2" d="M174.4,66.47c0,4.68-2.83,7.54-7.24,7.54s-7.68-3-7.68-8.06,3.28-8.06,7.66-8.06c3.59,0,6.51,2,7.14,5.56l-2,.32a4.85,4.85,0,0,0-5.17-4.16c-3.34,0-5.69,2.18-5.69,6.34s2.39,6.34,5.69,6.34a4.82,4.82,0,0,0,5.23-4.77h-5.17v-1.7h7.22v0.65Z" transform="translate(-4.49 -2)"/><path class="cls-2" d="M188.07,68.44a5.5,5.5,0,1,1-5.5-5.54A5.3,5.3,0,0,1,188.07,68.44Zm-9.18,0a3.69,3.69,0,1,0,7.35,0A3.69,3.69,0,1,0,178.89,68.44Z" transform="translate(-4.49 -2)"/><path class="cls-2" d="M201.74,68.44a5.5,5.5,0,1,1-5.5-5.54A5.3,5.3,0,0,1,201.74,68.44Zm-9.18,0a3.69,3.69,0,1,0,7.35,0A3.69,3.69,0,1,0,192.56,68.44Z" transform="translate(-4.49 -2)"/><path class="cls-2" d="M213.37,64.85V63.09h1.7V74.41c0,3.06-2.06,4.93-5.12,4.93s-4.77-1.57-5.19-3.8l1.81-.06a3.44,3.44,0,0,0,6.7-.95V72.2a4.12,4.12,0,0,1-3.7,1.81c-2.94,0-5.17-2.1-5.17-5.56s2.23-5.54,5.17-5.54A4.19,4.19,0,0,1,213.37,64.85Zm-7.14,3.61c0,2.56,1.55,4,3.59,4a3.29,3.29,0,0,0,3.44-3.65V68.15c0-2.44-1.47-3.67-3.44-3.67S206.24,65.88,206.24,68.46Z" transform="translate(-4.49 -2)"/><path class="cls-2" d="M219.07,73.8V57.48h1.81V73.8h-1.81Z" transform="translate(-4.49 -2)"/><path class="cls-2" d="M226.16,69.14a3.22,3.22,0,0,0,3.36,3.3,2.84,2.84,0,0,0,3-1.91l1.81,0.11A4.63,4.63,0,0,1,229.57,74c-3.07,0-5.31-2.08-5.31-5.56s2.23-5.54,5.27-5.54,4.91,2.08,4.91,5.25v1h-8.27Zm0-1.47h6.47a3,3,0,0,0-3.13-3.19A3.14,3.14,0,0,0,226.16,67.67Z" transform="translate(-4.49 -2)"/><path class="cls-2" d="M249.43,58.09a4.47,4.47,0,0,1,4.83,4.77c0,3.13-2.1,4.75-4.83,4.75h-4.22V73.8h-1.93V58.09h6.15Zm-4.24,7.81h4a3.05,3.05,0,1,0,0-6.11h-4V65.9Z" transform="translate(-4.49 -2)"/><path class="cls-2" d="M257.27,73.8V57.48h1.81V73.8h-1.81Z" transform="translate(-4.49 -2)"/><path class="cls-2" d="M271.42,64.85V63.09h1.7V73.8h-1.7V72.06a4.19,4.19,0,0,1-3.8,2c-2.94,0-5.17-2.1-5.17-5.54s2.23-5.56,5.17-5.56A4.15,4.15,0,0,1,271.42,64.85Zm-7.14,3.59c0,2.58,1.55,4,3.59,4s3.44-1.24,3.44-3.67V68.13c0-2.42-1.47-3.65-3.44-3.65S264.28,65.88,264.28,68.44Z" transform="translate(-4.49 -2)"/><path class="cls-2" d="M276.65,79.15L280,72.24l-4.3-9.15h2L281,70.31l3.34-7.22h2l-7.66,16.06h-2.06Z" transform="translate(-4.49 -2)"/><path class="cls-2" d="M135.88,34.58l-3.38.29a4,4,0,0,0-4.18-3.4c-2.75,0-4.58,2-4.58,5.21,0,3.4,2,5.21,4.6,5.21a3.93,3.93,0,0,0,4.16-3.34l3.4,0.29c-0.61,3.67-3.65,5.92-7.45,5.92-4.6,0-8-3-8-8.08s3.38-8.08,8-8.08C132.23,28.6,135.32,30.87,135.88,34.58Z" transform="translate(-4.49 -2)"/><path class="cls-2" d="M155.37,36.68c0,4.93-3.46,8.08-8.15,8.08s-8.17-3.15-8.17-8.08,3.44-8.08,8.17-8.08S155.37,31.75,155.37,36.68Zm-13,0c0,3.23,2,5.21,4.87,5.21s4.83-2,4.83-5.21-2-5.21-4.83-5.21S142.35,33.43,142.35,36.68Z" transform="translate(-4.49 -2)"/><path class="cls-2" d="M172.93,44.53V37.61l-5.21,7-5.23-7v6.93h-3.25v-16l8.48,11.07,8.44-11.07v16h-3.23Z" transform="translate(-4.49 -2)"/><path class="cls-2" d="M180.57,44.53V28.83h3.25V44.53h-3.25Z" transform="translate(-4.49 -2)"/><path class="cls-2" d="M197.54,28.83h3.23v16l-9.28-8.88v8.59h-3.25v-16l9.3,8.9V28.83Z" transform="translate(-4.49 -2)"/><path class="cls-2" d="M220.11,37c0,4.64-2.88,7.75-7.47,7.75s-8-3-8-8.08,3.38-8.08,8-8.08c3.63,0,6.51,2,7.35,5.4l-3.36.57a3.82,3.82,0,0,0-4-3.09c-2.81,0-4.64,1.72-4.64,5.21s1.85,5.21,4.64,5.21a3.71,3.71,0,0,0,4-3.07h-3.95V36h7.5v1Z" transform="translate(-4.49 -2)"/><path class="cls-2" d="M241.11,33.43l-3.32.17a2.18,2.18,0,0,0-2.44-2.18c-1.49,0-2.33.8-2.33,1.89s0.9,1.55,3.07,2.06c3.21,0.82,5.33,1.81,5.33,4.6,0,3.34-2.62,4.81-5.77,4.81-3.63,0-6.26-1.78-6.3-5l3.3-.17c0.06,1.43,1.3,2.39,3,2.39,1.45,0,2.48-.55,2.48-1.83S237,38.49,234.9,38c-2.83-.71-5.19-1.51-5.19-4.56,0-2.58,1.83-4.81,5.58-4.81C238.7,28.6,241,30.4,241.11,33.43Z" transform="translate(-4.49 -2)"/><path class="cls-2" d="M260.94,36.68c0,4.93-3.46,8.08-8.15,8.08s-8.17-3.15-8.17-8.08,3.44-8.08,8.17-8.08S260.94,31.75,260.94,36.68Zm-13,0c0,3.23,2,5.21,4.87,5.21s4.83-2,4.83-5.21-2-5.21-4.83-5.21S247.92,33.43,247.92,36.68Z" transform="translate(-4.49 -2)"/><path class="cls-2" d="M280.57,36.68c0,4.93-3.46,8.08-8.15,8.08s-8.17-3.15-8.17-8.08,3.44-8.08,8.17-8.08S280.57,31.75,280.57,36.68Zm-13,0c0,3.23,2,5.21,4.87,5.21s4.83-2,4.83-5.21-2-5.21-4.83-5.21S267.56,33.43,267.56,36.68Z" transform="translate(-4.49 -2)"/><path class="cls-2" d="M293.74,28.83H297v16l-9.28-8.88v8.59h-3.25v-16l9.3,8.9V28.83Z" transform="translate(-4.49 -2)"/><path d="M56.29,74.68a0.94,0.94,0,0,1,.1-0.14L77.09,53.74h0l7.13,7.13-1.16.64-6,3.22L69,69.15c-2.6,1.41-5.2,2.83-7.81,4.21a10.5,10.5,0,0,1-3.46,1.26,0.16,0.16,0,0,0,0,.07H56.29Z" transform="translate(-4.49 -2)"/><path d="M57.63,28.72a14.51,14.51,0,0,1,1.86.58c1.35,0.62,2.67,1.29,4,2,2.49,1.32,5,2.68,7.44,4l7.76,4.19,5.51,3s0.06,0.06,0,0l-7.12,7.12-0.22-.2q-6.33-6.33-12.65-12.66Q60.35,32.88,56.48,29a3.07,3.07,0,0,1-.19-0.24h1.35Z" transform="translate(-4.49 -2)"/><path d="M75.14,51.73L53.66,73.23a5.2,5.2,0,0,1-.77-2.33c-0.09-1-.1-2-0.1-3q0-17.26,0-34.51a6.35,6.35,0,0,1,.83-3.16Z" transform="translate(-4.49 -2)"/><path d="M86.95,59.43L79.24,51.7l7.67-7.8c2.1,1.2,4.2,2.34,6.25,3.58a5.61,5.61,0,0,1,2.5,2.89,3.75,3.75,0,0,1-.33,3.35,7.39,7.39,0,0,1-2.68,2.53C90.77,57.36,88.83,58.39,86.95,59.43Z" transform="translate(-4.49 -2)"/></svg>